<svg width="36" height="36" viewBox="0 0 36 36" fill="none" xmlns="http://www.w3.org/2000/svg">
<g id="weui:eyes-off-filled">
<path id="Vector" fill-rule="evenodd" clip-rule="evenodd" d="M28.383 25.2L33.138 29.955L31.548 31.5465L6.09 6.0915L7.68 4.5L11.79 8.607C13.7779 7.87227 15.8807 7.49742 18 7.5C25.212 7.5 31.458 11.772 34.5 18C33.1001 20.877 30.996 23.3536 28.383 25.2ZM16.236 13.0545L22.9455 19.764C23.2802 18.8278 23.3422 17.8157 23.1243 16.8456C22.9063 15.8755 22.4173 14.9873 21.7143 14.2842C21.0112 13.5812 20.123 13.0922 19.1529 12.8742C18.1828 12.6563 17.1707 12.7183 16.2345 13.053L16.236 13.0545ZM24.2115 27.3945C22.2231 28.1289 20.1197 28.5032 18 28.5C10.788 28.5 4.542 24.228 1.5 18C2.8999 15.123 5.00402 12.6464 7.617 10.8L13.0545 16.236C12.7198 17.1722 12.6578 18.1843 12.8757 19.1544C13.0937 20.1245 13.5827 21.0127 14.2857 21.7158C14.9888 22.4188 15.877 22.9078 16.8471 23.1258C17.8172 23.3437 18.8293 23.2817 19.7655 22.947L24.2115 27.393V27.3945Z" fill="black"/>
</g>
</svg>
