<svg width="35" height="35" viewBox="0 0 35 35" fill="none" xmlns="http://www.w3.org/2000/svg">
<path id="Vector" d="M28.4375 12.25V8.75C28.4375 3.85 23.625 0 17.5 0C11.375 0 6.5625 3.85 6.5625 8.75V12.25C2.84375 12.25 0 14.525 0 17.5V29.75C0 32.725 2.84375 35 6.5625 35H28.4375C32.1562 35 35 32.725 35 29.75V17.5C35 14.525 32.1562 12.25 28.4375 12.25ZM10.9375 8.75C10.9375 5.775 13.7812 3.5 17.5 3.5C21.2188 3.5 24.0625 5.775 24.0625 8.75V12.25H10.9375V8.75ZM19.9062 23.625L19.6875 23.8V26.25C19.6875 27.3 18.8125 28 17.5 28C16.1875 28 15.3125 27.3 15.3125 26.25V23.8C14 22.75 13.7812 21.175 15.0937 20.125C16.4062 19.075 18.375 18.9 19.6875 19.95C21 20.825 21.2188 22.575 19.9062 23.625Z" fill="black"/>
</svg>
