<svg width="70" height="70" viewBox="0 0 70 70" fill="none" xmlns="http://www.w3.org/2000/svg">
<g id="Group">
<path id="Vector" fill-rule="evenodd" clip-rule="evenodd" d="M47.7272 25.4546C47.7272 28.8301 46.3863 32.0673 43.9994 34.4541C41.6126 36.841 38.3754 38.1819 34.9999 38.1819C31.6244 38.1819 28.3872 36.841 26.0004 34.4541C23.6136 32.0673 22.2727 28.8301 22.2727 25.4546C22.2727 22.0791 23.6136 18.8419 26.0004 16.4551C28.3872 14.0682 31.6244 12.7273 34.9999 12.7273C38.3754 12.7273 41.6126 14.0682 43.9994 16.4551C46.3863 18.8419 47.7272 22.0791 47.7272 25.4546ZM41.3635 25.4546C41.3635 27.1423 40.6931 28.7609 39.4997 29.9544C38.3063 31.1478 36.6877 31.8182 34.9999 31.8182C33.3122 31.8182 31.6936 31.1478 30.5002 29.9544C29.3067 28.7609 28.6363 27.1423 28.6363 25.4546C28.6363 23.7669 29.3067 22.1482 30.5002 20.9548C31.6936 19.7614 33.3122 19.091 34.9999 19.091C36.6877 19.091 38.3063 19.7614 39.4997 20.9548C40.6931 22.1482 41.3635 23.7669 41.3635 25.4546Z" fill="black"/>
<path id="Vector_2" fill-rule="evenodd" clip-rule="evenodd" d="M35 0C15.6704 0 0 15.6704 0 35C0 54.3295 15.6704 69.9999 35 69.9999C54.3295 69.9999 69.9999 54.3295 69.9999 35C69.9999 15.6704 54.3295 0 35 0ZM6.36363 35C6.36363 41.6499 8.63226 47.7718 12.4345 52.6336C15.1055 49.1276 18.5505 46.2863 22.5006 44.3314C26.4508 42.3764 30.7993 41.3607 35.2068 41.3636C39.5575 41.3585 43.852 42.3471 47.7626 44.2539C51.6733 46.1607 55.0968 48.9353 57.7722 52.3663C60.5291 48.7505 62.3853 44.5302 63.1873 40.0546C63.9893 35.5789 63.714 30.9767 62.3842 26.6286C61.0544 22.2804 58.7084 18.3115 55.5401 15.0501C52.3719 11.7887 48.4726 9.32863 44.1648 7.87343C39.857 6.41822 35.2647 6.00972 30.7677 6.68172C26.2707 7.35373 21.9984 9.08692 18.3042 11.7379C14.6101 14.3889 11.6003 17.8814 9.5239 21.9265C7.44751 25.9716 6.3642 30.453 6.36363 35ZM35 63.6363C28.426 63.6469 22.0504 61.3854 16.9527 57.2345C19.0044 54.2964 21.7356 51.8976 24.9138 50.2423C28.0921 48.587 31.6233 47.7241 35.2068 47.7272C38.7455 47.7241 42.2339 48.5655 45.3822 50.1814C48.5304 51.7973 51.2477 54.1411 53.3081 57.0181C48.171 61.304 41.6902 63.6468 35 63.6363Z" fill="black"/>
</g>
</svg>
