<svg width="87" height="87" viewBox="0 0 87 87" fill="none" xmlns="http://www.w3.org/2000/svg">
<g id="stash:data-date-solid">
<path id="Vector" d="M30.8125 50.75C32.0143 50.75 33.1668 50.2726 34.0166 49.4228C34.8664 48.5731 35.3438 47.4205 35.3438 46.2188C35.3438 45.017 34.8664 43.8644 34.0166 43.0147C33.1668 42.1649 32.0143 41.6875 30.8125 41.6875C29.6107 41.6875 28.4582 42.1649 27.6084 43.0147C26.7586 43.8644 26.2812 45.017 26.2812 46.2188C26.2812 47.4205 26.7586 48.5731 27.6084 49.4228C28.4582 50.2726 29.6107 50.75 30.8125 50.75ZM30.8125 63.4375C32.0143 63.4375 33.1668 62.9601 34.0166 62.1103C34.8664 61.2606 35.3438 60.108 35.3438 58.9062C35.3438 57.7045 34.8664 56.5519 34.0166 55.7022C33.1668 54.8524 32.0143 54.375 30.8125 54.375C29.6107 54.375 28.4582 54.8524 27.6084 55.7022C26.7586 56.5519 26.2812 57.7045 26.2812 58.9062C26.2812 60.108 26.7586 61.2606 27.6084 62.1103C28.4582 62.9601 29.6107 63.4375 30.8125 63.4375ZM48.0312 46.2188C48.0312 47.4205 47.5539 48.5731 46.7041 49.4228C45.8543 50.2726 44.7018 50.75 43.5 50.75C42.2982 50.75 41.1457 50.2726 40.2959 49.4228C39.4461 48.5731 38.9688 47.4205 38.9688 46.2188C38.9688 45.017 39.4461 43.8644 40.2959 43.0147C41.1457 42.1649 42.2982 41.6875 43.5 41.6875C44.7018 41.6875 45.8543 42.1649 46.7041 43.0147C47.5539 43.8644 48.0312 45.017 48.0312 46.2188ZM43.5 63.4375C44.7018 63.4375 45.8543 62.9601 46.7041 62.1103C47.5539 61.2606 48.0312 60.108 48.0312 58.9062C48.0312 57.7045 47.5539 56.5519 46.7041 55.7022C45.8543 54.8524 44.7018 54.375 43.5 54.375C42.2982 54.375 41.1457 54.8524 40.2959 55.7022C39.4461 56.5519 38.9688 57.7045 38.9688 58.9062C38.9688 60.108 39.4461 61.2606 40.2959 62.1103C41.1457 62.9601 42.2982 63.4375 43.5 63.4375ZM60.7188 46.2188C60.7188 47.4205 60.2414 48.5731 59.3916 49.4228C58.5418 50.2726 57.3893 50.75 56.1875 50.75C54.9857 50.75 53.8332 50.2726 52.9834 49.4228C52.1336 48.5731 51.6562 47.4205 51.6562 46.2188C51.6562 45.017 52.1336 43.8644 52.9834 43.0147C53.8332 42.1649 54.9857 41.6875 56.1875 41.6875C57.3893 41.6875 58.5418 42.1649 59.3916 43.0147C60.2414 43.8644 60.7188 45.017 60.7188 46.2188Z" fill="black"/>
<path id="Vector_2" fill-rule="evenodd" clip-rule="evenodd" d="M29 11.7812C29.7211 11.7812 30.4126 12.0677 30.9224 12.5776C31.4323 13.0874 31.7188 13.7789 31.7188 14.5V17.2188H55.2812V14.5C55.2812 13.7789 55.5677 13.0874 56.0776 12.5776C56.5874 12.0677 57.2789 11.7813 58 11.7812C58.7211 11.7812 59.4126 12.0677 59.9224 12.5776C60.4323 13.0874 60.7188 13.7789 60.7188 14.5V17.2477C61.2697 17.2622 61.7833 17.2888 62.2594 17.3275C63.6369 17.4363 64.9274 17.6828 66.149 18.3063C68.0251 19.2621 69.5504 20.7874 70.5063 22.6635C71.1298 23.8851 71.3762 25.1756 71.485 26.5531C71.5937 27.8762 71.5938 29.4894 71.5938 31.4288V59.1963C71.5938 61.1356 71.5937 62.7487 71.485 64.0719C71.3762 65.4494 71.1298 66.7399 70.5063 67.9615C69.5514 69.8371 68.0274 71.3623 66.1526 72.3188C64.9274 72.9423 63.6369 73.1887 62.2594 73.2975C60.9362 73.4062 59.3231 73.4062 57.3874 73.4062H29.6163C27.6769 73.4062 26.0637 73.4062 24.7406 73.2975C23.3631 73.1887 22.0726 72.9423 20.851 72.3188C18.976 71.3648 17.4508 69.8422 16.4938 67.9688C15.8703 66.7435 15.6238 65.453 15.515 64.0755C15.4063 62.7524 15.4062 61.1393 15.4062 59.2035V31.4288C15.4062 29.4894 15.4063 27.8762 15.515 26.5531C15.6238 25.1756 15.8703 23.8851 16.4938 22.6635C17.4496 20.7874 18.9749 19.2621 20.851 18.3063C22.0726 17.6828 23.3631 17.4363 24.7406 17.3275C25.2167 17.2888 25.7303 17.2622 26.2812 17.2477V14.5C26.2812 14.143 26.3516 13.7894 26.4882 13.4596C26.6248 13.1297 26.8251 12.83 27.0776 12.5776C27.33 12.3251 27.6297 12.1248 27.9596 11.9882C28.2894 11.8516 28.643 11.7812 29 11.7812ZM66.1562 37.1562H20.8438V59.0875C20.8438 61.161 20.8438 62.5566 20.9344 63.626C21.0178 64.67 21.17 65.1666 21.3368 65.4929C21.7718 66.3484 22.4641 67.0408 23.3196 67.4757C23.6459 67.6425 24.1425 67.7948 25.1829 67.8781C26.2559 67.9651 27.6479 67.9688 29.725 67.9688H57.275C59.3485 67.9688 60.7441 67.9688 61.8135 67.8781C62.8575 67.7948 63.3541 67.6425 63.6804 67.4757C64.5344 67.0411 65.2286 66.3469 65.6632 65.4929C65.83 65.1666 65.9823 64.67 66.0656 63.626C66.1526 62.5566 66.1562 61.161 66.1562 59.0875V37.1562ZM38.0625 25.375C37.3414 25.375 36.6499 25.6614 36.1401 26.1713C35.6302 26.6812 35.3438 27.3727 35.3438 28.0938C35.3438 28.8148 35.6302 29.5063 36.1401 30.0162C36.6499 30.5261 37.3414 30.8125 38.0625 30.8125H48.9375C49.6586 30.8125 50.3501 30.5261 50.8599 30.0162C51.3698 29.5063 51.6562 28.8148 51.6562 28.0938C51.6562 27.3727 51.3698 26.6812 50.8599 26.1713C50.3501 25.6614 49.6586 25.375 48.9375 25.375H38.0625Z" fill="black"/>
</g>
</svg>
