<svg width="36" height="36" viewBox="0 0 36 36" fill="none" xmlns="http://www.w3.org/2000/svg">
<g id="lets-icons:message-fill">
<path id="Vector" fill-rule="evenodd" clip-rule="evenodd" d="M5.8185 8.8185C4.5 10.1355 4.5 12.258 4.5 16.5V19.5C4.5 23.742 4.5 25.8645 5.8185 27.1815C7.1355 28.5 9.258 28.5 13.5 28.5H22.5C26.742 28.5 28.8645 28.5 30.1815 27.1815C31.5 25.8645 31.5 23.742 31.5 19.5V16.5C31.5 12.258 31.5 10.1355 30.1815 8.8185C28.8645 7.5 26.742 7.5 22.5 7.5H13.5C9.258 7.5 7.1355 7.5 5.8185 8.8185ZM9.8325 12.252C9.50151 12.0312 9.09637 11.9509 8.7062 12.0289C8.31603 12.1068 7.97279 12.3365 7.752 12.6675C7.53121 12.9985 7.45094 13.4036 7.52886 13.7938C7.60679 14.184 7.83651 14.5272 8.1675 14.748L16.3365 20.193C16.8292 20.5213 17.408 20.6964 18 20.6964C18.592 20.6964 19.1708 20.5213 19.6635 20.193L27.8325 14.748C28.1635 14.5272 28.3932 14.184 28.4711 13.7938C28.5491 13.4036 28.4688 12.9985 28.248 12.6675C28.0272 12.3365 27.684 12.1068 27.2938 12.0289C26.9036 11.9509 26.4985 12.0312 26.1675 12.252L18 17.697L9.8325 12.252Z" fill="black"/>
</g>
</svg>
